<svg width="560" height="560" viewBox="0 0 560 560" fill="none" xmlns="http://www.w3.org/2000/svg">
<path d="M446.668 17H151.293C116.781 17.0156 88.8047 44.9883 88.793 79.5V106.5H59.418C52.5117 106.5 46.918 112.098 46.918 119C46.918 125.902 52.5117 131.5 59.418 131.5H88.6641V213.5H59.418C52.5117 213.5 46.918 219.094 46.918 226C46.918 232.902 52.5117 238.5 59.418 238.5H88.6641V320.5H59.418C52.5117 320.5 46.918 326.098 46.918 333C46.918 339.906 52.5117 345.5 59.418 345.5H88.6641V427.5H59.418C52.5117 427.5 46.918 433.098 46.918 440C46.918 446.902 52.5117 452.5 59.418 452.5H88.6641V479.5C88.6797 514.012 116.652 541.984 151.164 542H446.539C481.051 541.984 509.031 514.012 509.039 479.5V79.5C509.09 45.0117 481.156 17.0234 446.668 17ZM484.168 479.5C484.105 500.184 467.352 516.941 446.668 517H151.293C130.609 516.941 113.852 500.184 113.793 479.5V452.5H143.039C149.945 452.5 155.539 446.902 155.539 440C155.539 433.098 149.945 427.5 143.039 427.5H113.793V345.5H143.039C149.945 345.5 155.539 339.906 155.539 333C155.539 326.098 149.945 320.5 143.039 320.5H113.793V238.5H143.039C149.945 238.5 155.539 232.902 155.539 226C155.539 219.094 149.945 213.5 143.039 213.5H113.793V131.5H143.039C149.945 131.5 155.539 125.902 155.539 119C155.539 112.098 149.945 106.5 143.039 106.5H113.793V79.5C113.852 58.8164 130.609 42.0586 151.293 42H446.668C467.352 42.0586 484.105 58.8164 484.168 79.5V479.5Z" fill="white"/>
<path d="M298.918 275.875C332.398 275.875 359.543 248.734 359.543 215.25C359.543 181.766 332.398 154.625 298.918 154.625C265.434 154.625 238.293 181.766 238.293 215.25C238.324 248.719 265.445 275.844 298.918 275.875ZM298.918 179.5C318.59 179.5 334.543 195.453 334.543 215.125C334.543 234.797 318.59 250.75 298.918 250.75C279.242 250.75 263.293 234.797 263.293 215.125C263.328 195.469 279.254 179.535 298.918 179.5Z" fill="white"/>
<path d="M298.918 296C246.918 296 206.164 338.125 206.164 392C206.184 398.895 211.77 404.48 218.664 404.5H379.168C386.062 404.48 391.648 398.895 391.668 392C391.668 338.125 350.914 296 298.918 296ZM232.164 379.5C237.543 345.375 264.418 321 298.918 321C333.414 321 360.418 345.375 365.668 379.5H232.164Z" fill="white"/>
</svg>
