<svg width="195" height="195" viewBox="0 0 195 195" fill="none" xmlns="http://www.w3.org/2000/svg">
<path d="M134.062 73.125C134.062 82.822 130.21 92.1218 123.354 98.9786C116.497 105.835 107.197 109.688 97.5 109.688C87.803 109.688 78.5032 105.835 71.6464 98.9786C64.7896 92.1218 60.9375 82.822 60.9375 73.125C60.9375 63.428 64.7896 54.1282 71.6464 47.2714C78.5032 40.4146 87.803 36.5625 97.5 36.5625C107.197 36.5625 116.497 40.4146 123.354 47.2714C130.21 54.1282 134.062 63.428 134.062 73.125Z" fill="white"/>
<path fill-rule="evenodd" clip-rule="evenodd" d="M0 97.5C0 71.6414 10.2723 46.8419 28.5571 28.5571C46.8419 10.2723 71.6414 0 97.5 0C123.359 0 148.158 10.2723 166.443 28.5571C184.728 46.8419 195 71.6414 195 97.5C195 123.359 184.728 148.158 166.443 166.443C148.158 184.728 123.359 195 97.5 195C71.6414 195 46.8419 184.728 28.5571 166.443C10.2723 148.158 0 123.359 0 97.5ZM97.5 12.1875C81.4342 12.1884 65.6951 16.7257 52.0943 25.2772C38.4935 33.8288 27.5838 46.0469 20.6208 60.5255C13.6579 75.004 10.9247 91.1544 12.7359 107.118C14.5471 123.081 20.8291 138.209 30.8588 150.759C39.5119 136.817 58.5609 121.875 97.5 121.875C136.439 121.875 155.476 136.805 164.141 150.759C174.171 138.209 180.453 123.081 182.264 107.118C184.075 91.1544 181.342 75.004 174.379 60.5255C167.416 46.0469 156.507 33.8288 142.906 25.2772C129.305 16.7257 113.566 12.1884 97.5 12.1875Z" fill="white"/>
</svg>
